<svg width="9" height="15" viewBox="0 0 9 15" fill="none" xmlns="http://www.w3.org/2000/svg">
<path d="M6.89015 4.3318V11.6782H6.39287C6.31427 11.6782 6.24762 11.6646 6.19294 11.6372C6.14167 11.6099 6.0904 11.5637 6.03914 11.4988L1.78918 5.96206C1.79602 6.0475 1.80115 6.13124 1.80456 6.21326C1.80798 6.29529 1.80969 6.37219 1.80969 6.44396V11.6782H0.938168V4.3318H1.45083C1.49526 4.3318 1.53285 4.33522 1.56361 4.34205C1.59437 4.34547 1.62172 4.35402 1.64564 4.36769C1.66956 4.37794 1.69349 4.39503 1.71741 4.41895C1.74134 4.43946 1.76697 4.4668 1.79431 4.50098L6.04426 10.0326C6.03743 9.94372 6.03059 9.85828 6.02376 9.77625C6.02034 9.69081 6.01863 9.61049 6.01863 9.5353V4.3318H6.89015Z" fill="#6C6C6C"/>
<line x1="2.80114e-08" y1="7.40761" x2="8.33073" y2="7.40762" stroke="#6C6C6C" stroke-width="0.640825"/>
<line x1="2.80114e-08" y1="8.68886" x2="8.33073" y2="8.68887" stroke="#6C6C6C" stroke-width="0.640825"/>
</svg>
