<svg width="13" height="23" viewBox="0 0 13 23" fill="none" xmlns="http://www.w3.org/2000/svg">
<path d="M10.6406 5.70844V17.0537H9.87268C9.75129 17.0537 9.64837 17.0326 9.56392 16.9904C9.48474 16.9481 9.40557 16.8769 9.3264 16.7766L2.76308 8.22609C2.77364 8.35804 2.78156 8.48736 2.78684 8.61403C2.79211 8.7407 2.79475 8.85946 2.79475 8.9703V17.0537H1.44884V5.70844H2.24055C2.30917 5.70844 2.36723 5.71372 2.41473 5.72427C2.46223 5.72955 2.50446 5.74274 2.5414 5.76386C2.57835 5.77969 2.6153 5.80608 2.65224 5.84303C2.68919 5.8747 2.72878 5.91692 2.771 5.9697L9.33432 14.5123C9.32376 14.3751 9.31321 14.2431 9.30265 14.1164C9.29737 13.9845 9.29473 13.8605 9.29473 13.7443V5.70844H10.6406Z" fill="black"/>
<line x1="4.32587e-08" y1="10.4451" x2="12.8654" y2="10.4451" stroke="#121517" stroke-width="0.989644"/>
<line x1="4.32587e-08" y1="12.4241" x2="12.8654" y2="12.4241" stroke="#121517" stroke-width="0.989644"/>
</svg>
